<?xml version="1.0" standalone="no"?>
<!DOCTYPE svg PUBLIC "-//W3C//DTD SVG 20010904//EN"
 "http://www.w3.org/TR/2001/REC-SVG-20010904/DTD/svg10.dtd">
<svg version="1.0" xmlns="http://www.w3.org/2000/svg"
 width="497.000000pt" height="512.000000pt" viewBox="0 0 497.000000 512.000000"
 preserveAspectRatio="xMidYMid meet">

<g transform="translate(0.000000,512.000000) scale(0.100000,-0.100000)"
fill="#000000" stroke="none">
<path d="M2117 4823 l-297 -298 0 253 0 252 -535 0 -535 0 0 -788 0 -787 -375
-375 -375 -375 0 -57 0 -58 210 0 210 0 0 -1295 0 -1295 2060 0 2060 0 2 1292
3 1293 213 3 212 2 0 59 0 59 -697 678 c-384 373 -777 755 -873 849 -96 94
-272 266 -390 381 -118 115 -283 275 -365 356 -143 140 -153 148 -190 148 -39
0 -48 -8 -338 -297z m523 -76 c195 -193 651 -637 1480 -1442 305 -297 557
-543 558 -547 2 -5 -984 -8 -2192 -8 -1312 0 -2196 4 -2196 9 0 9 2160 2160
2170 2161 2 0 83 -78 180 -173z m-980 -139 l0 -253 -278 -275 c-153 -151 -319
-315 -370 -364 l-92 -90 0 617 0 617 370 0 370 0 0 -252z m2718 -3230 l-3
-1213 -202 -3 -203 -2 0 1085 0 1085 -730 0 -730 0 0 -1085 0 -1085 -962 2
-963 3 -3 1213 -2 1212 1900 0 1900 0 -2 -1212z m-570 -200 l-3 -983 -562 -3
-563 -2 0 985 0 985 565 0 565 0 -2 -982z"/>
<path d="M930 1485 l0 -595 595 0 595 0 0 595 0 595 -595 0 -595 0 0 -595z
m530 265 l0 -170 -180 0 -180 0 0 170 0 170 180 0 180 0 0 -170z m498 3 l-3
-168 -165 0 -165 0 -3 155 c-1 85 0 160 2 167 4 10 45 13 171 13 l165 0 -2
-167z m-498 -515 l0 -183 -177 2 -178 2 -3 181 -2 180 180 0 180 0 0 -182z
m500 4 c0 -98 -2 -181 -4 -183 -2 -2 -79 -3 -170 -1 l-166 3 0 179 0 180 170
0 170 0 0 -178z"/>
</g>
</svg>
